<svg id="Layer_1" data-name="Layer 1" xmlns="http://www.w3.org/2000/svg" viewBox="0 0 44.37 83.39"><defs><style>.cls-1{fill:none;stroke:#000;stroke-miterlimit:10;stroke-width:3px;}</style></defs><title>feedback-05-02</title><path class="cls-1" d="M41.77,2.63a39.07,39.07,0,0,0,0,78.14"/><path d="M41.74,59V55.89l-2.93-2.63v0c-3.57-3.38-7.19-6.71-10.88-9.95-1.46-1.28-1.38-2.07,0-3.3,4.23-3.74,8.36-7.57,12.5-11.39.22-.2.48-.42.71-.65a2.53,2.53,0,0,0,.31-.37l.24-.29V24.73c0-2.41,0-4.9,0-7.75L14.48,41.74,41.74,66.51C41.74,63.65,41.82,61.26,41.74,59Z"/></svg>